<?xml version="1.0" encoding="UTF-8"?>
<svg viewBox="0 0 900 650" xmlns="http://www.w3.org/2000/svg" xmlns:xlink="http://www.w3.org/1999/xlink">
 <defs>
  <clipPath id="l">
   <path d="m768.26 176.38c-0.60631 1.0339-1.227 2.3262-1.4078 3.5959 1.7572 1.6552 3.6791 3.4226 5.3544 4.8114 1.116-0.40602 2.39-1.069 3.1388-2.1018-1e-3 -8e-3 1e-3 -0.0171 0-0.0253-0.76151-4.2462-4.0823-5.764-7.0854-6.2802z"/>
  </clipPath>
  <clipPath id="k">
   <path d="m768.59 176.3c-0.80759 1.2013-1.572 2.8603-1.324 4.6627 8e-3 0.0583 0.0332 0.10764 0.0427 0.16401 1.5044 1.1993 3.2108 2.3475 4.8475 3.0694 0.86999-0.30457 2.075-0.87569 3.1392-1.8979-0.95663-4.1164-3.8829-5.588-6.7054-5.9983z"/>
  </clipPath>
  <clipPath id="j">
   <path d="m77.143 51.429h884.29v632.86h-884.29z" fill-rule="evenodd"/>
  </clipPath>
  <linearGradient id="a">
   <stop stop-color="#cb9f73" offset="0"/>
   <stop stop-color="#cb9f73" stop-opacity="0" offset="1"/>
  </linearGradient>
  <linearGradient id="i" x1="927.32" x2="626.29" y1="363.11" y2="142.9" gradientUnits="userSpaceOnUse">
   <stop stop-color="#a4a486" offset="0"/>
   <stop stop-color="#cdceac" offset="1"/>
  </linearGradient>
  <linearGradient id="c" x1="753.32" x2="766.08" y1="261.57" y2="247.2" gradientUnits="userSpaceOnUse">
   <stop stop-color="#fff" offset="0"/>
   <stop stop-color="#dfd9d9" offset="1"/>
  </linearGradient>
  <linearGradient id="b" x1="766.94" x2="767.95" y1="177.86" y2="180.45" gradientUnits="userSpaceOnUse">
   <stop stop-color="#fff" offset="0"/>
   <stop stop-color="#fff" stop-opacity="0" offset="1"/>
  </linearGradient>
  <linearGradient id="h" x1="335" x2="301.43" y1="488.57" y2="440.71" gradientUnits="userSpaceOnUse" xlink:href="#a"/>
  <linearGradient id="g" x1="606.79" x2="576.75" y1="356.03" y2="367.64" gradientUnits="userSpaceOnUse" xlink:href="#a"/>
  <linearGradient id="f" x1="514.23" x2="506.38" y1="280.87" y2="269.08" gradientUnits="userSpaceOnUse" xlink:href="#a"/>
  <linearGradient id="e" x1="509.94" x2="474.02" y1="380.49" y2="377.84" gradientUnits="userSpaceOnUse" xlink:href="#a"/>
  <linearGradient id="d" x1="775.93" x2="820.5" y1="211" y2="232.07" gradientUnits="userSpaceOnUse" xlink:href="#a"/>
 </defs>
 <g transform="translate(-67.143 -44.286)" clip-path="url(#j)">
  <path d="m842.47 497.46 129.3 167.69v27.274l-169.71-12.122 16.162-149.5 24.244-33.335z" fill="#bebd91" stroke="#000"/>
  <path d="m70.711 44.914 382.85 1.0102-3.0305 265.67-377.8 209.1-2.0203-475.78z" fill="#bfbe99" stroke="#000"/>
  <path d="m426.28 308.56 7.0711-262.64 538.41 1.0102-1.0102 633.37-147.48-178.8-170.72-28.284-81.822-74.751-144.45-89.904z" fill="url(#i)"/>
  <path d="m280.36 710.62s49.638-116.33 73.924-130.62 227.14-108.57 232.86-108.57 74.286 110 72.857 115.71-18.571 121.43-18.571 121.43-104.29 11.429-110 11.429-249.64-7.9525-251.07-9.3811z" fill="#d5cfa0"/>
  <path d="m71.429 445.71v250l241.43-1.4286s122.86-141.43 151.43-151.43 182.86-71.429 182.86-71.429l-120-171.43-22.857-41.429s-357.14 107.14-432.86 187.14z" fill="#b2b390"/>
  <path d="m376.79 452.26s3.7881 20.456 21.213 15.405 12.879-8.8388 21.213-5.8084-9.849-32.83-9.849-32.83l-20.203-0.25254-12.374 23.486z" fill="#f1c191" stroke="#000" stroke-width="3"/>
  <path d="m486.39 592.92c-34.318-37.026-66.29-132.58-84.853-158.59-48.534 45.691-54 59.925-130.81 80.307-18.211 8.3385-39.127 17.128-40.911 22.728-1.129 3.6999-2.0364 6.9643-0.21718 10.855 7.3579 15.734-8.2198 28.636-32.108 21.975-20.047-6.289-34.031-3.4843-46.525 1.5556-9.1307 0.12761-13.504-10.705-18.895-22.264-2.3822-2.6096-2.4412-5.2191-1.5025-7.8287-2.9609-9.0314 3.7819-10.598 6.3134-15.405-1.0901-4.5595 2.2261-6.0347 5.8084-7.3236l23.739 4.2931c7.805-4.6975 13.716-12.551 20.203-19.445 0.38575 1.1573 42.93-23.321 45.517-29.49 1.8582-4.431 61.807-54.794 93.571-78.571 19.277-14.43 53.571-43.571 62.143-47.857s31.071-11.071 60 19.286 103.93 129.64 104.64 148.57-64.286 77.5-64.286 77.5l-1.8258-0.29301z" fill="#f1c191" stroke="#000" stroke-width="3"/>
  <path d="m486.39 592.92c-34.318-37.026-66.29-132.58-84.853-158.59-48.534 45.691-54 59.925-130.81 80.307-18.211 8.3385-39.127 17.128-40.911 22.728-1.129 3.6999-2.0364 6.9643-0.21718 10.855 7.3579 15.734-8.2198 28.636-32.108 21.975-20.047-6.289-34.031-3.4843-46.525 1.5556-9.1307 0.12761-13.504-10.705-18.895-22.264-2.3822-2.6096-2.4412-5.2191-1.5025-7.8287-2.9609-9.0314 3.7819-10.598 6.3134-15.405-1.0901-4.5595 2.2261-6.0347 5.8084-7.3236l23.739 4.2931c7.805-4.6975 13.716-12.551 20.203-19.445 0.38575 1.1573 42.93-23.321 45.517-29.49 1.8582-4.431 61.807-54.794 93.571-78.571 19.277-14.43 53.571-43.571 62.143-47.857s31.071-11.071 60 19.286 103.93 129.64 104.64 148.57-64.286 77.5-64.286 77.5l-1.8258-0.29301z" fill="none" stroke="#000" stroke-linecap="round" stroke-width="3"/>
  <path d="m375.06 415.75c0.55297 0.52598 1.058 0.79839 1.5938 1.4375 3.0047 3.5842 5.3664 9.2498 2.6562 16.219-0.85846 2.2075-2.9895 4.4882-6.1562 7.375s-7.3848 6.2327-12.344 9.9062c-9.9179 7.3471-22.796 15.93-36.125 24.188s-27.078 16.181-38.688 22.219-20.85 10.196-26.125 10.906c-8.1359 1.0952-18.201 6.2786-24.75 12.719-3.2744 3.2201-5.6525 6.7553-6.625 10.094-0.6013 2.0642-0.62394 4.0243-0.0937 5.9375 0.72656-2.0573 2.5606-3.6675 5.0938-5.4375 2.602-1.8181 5.9772-3.6975 9.875-5.6875 7.7956-3.98 17.599-8.2759 26.688-12.438a1.5898 1.5898 0 0 1 0.25 -0.0937c76.077-20.187 81.624-34.121 129.22-79.062l-0.21875-0.3125c-3.9659-5.772-9.2343-12.086-13.25-14.094-4.1629-2.0814-7.9856-3.1968-11-3.875z" fill="url(#h)"/>
  <path d="m551.79 509.64s-66.429 30.357-72.5 75.357-8.9286 39.286-7.8572 43.571 1.4286 11.786 4.6429 12.143 9.6429 8.5714 15 6.4286 8.2143-3.5714 13.214-3.5714 15.357-2.1429 15.357-2.1429 39.286 41.071 58.571 43.214 45-100.36 45-100.36l48.214-107.14s3.5714-52.143 1.0714-53.571-5.7143-3.2143-5.7143-3.2143l-18.571 11.429-3.9286-5.7143-92.5 83.571z" fill="#1a1a1a" stroke="#000" stroke-width="3"/>
  <path d="m531.79 255.36s101.79 122.5 113.21 175.71l-90 81.786s-30-68.929-44.643-128.21l-26.429 23.929-35.714-41.071c0.44924 0.56155 15.483-67.343 16.071-76.071 0.41365-6.1306 1.0714-28.214 7.5-32.5s61.786-3.5714 61.786-3.5714h-1.7857z" fill="#f1c191" stroke="#000" stroke-linecap="round" stroke-width="3"/>
  <path d="m581.44 531.44s-79.665 60.719-81.094 83.219c-0.70745 11.142 4.5524 21.115 10.031 28.375 1.1265-0.15589 2.2014-0.32543 3.2188-0.5h0.0625l0.1875-0.0312c1.0556-0.17593 1.8363-0.34304 2.6875-0.5-5.4027-7.7266-13.475-20.683-11.531-27 2.8571-9.2857 50.705-70 71.062-72.5s5.375-11.062 5.375-11.062z"/>
  <path d="m524.64 631.79c0-1.4286 1.0714-53.214 56.786-83.929l-1.8536-2.413s-61.872 31.567-54.932 86.342z"/>
  <path d="m552.3 643.43c0-1.5152 26.011-64.902 49.245-78.792s-5.0508-1.7678-5.0508-1.7678-34.345 36.113-44.194 80.56z"/>
  <path d="m546.75 620.95s32.325-60.357 44.699-64.902 7.5761-6.566 7.5761-6.566l-10.859 0.75761s-37.881 47.225-41.416 70.711z"/>
  <path d="m692.14 732.86s51.429-107.14 170-142.86l81.429 107.14-251.43 35.714z" fill="#a09a73"/>
  <path d="m552.88 281.72c33.04 57.507 77.364 136.04 84.688 156.12l7.4375-6.7812c-8.1185-37.802-61.691-110.36-92.125-149.34z" fill="url(#g)"/>
  <path d="m531.79 255.36s101.79 122.5 113.21 175.71l-90 81.786s-30-68.929-44.643-128.21l-26.429 23.929-35.714-41.071c0.44924 0.56155 15.483-67.343 16.071-76.071 0.41365-6.1306 1.0714-28.214 7.5-32.5s61.786-3.5714 61.786-3.5714h-1.7857z" fill="none" stroke="#000" stroke-width="3"/>
  <path d="m868.21 334.11s27.143 100.18-24.643 194.82c-0.71429 0-4.2857 72.857-8.5714 77.143s-105.36 58.929-117.5 87.857c0 0-1.0714 11.429-8.5714 12.143s-131.07 9.6429-133.21 7.8571-1.4286-85.357 42.857-124.64c0 0-74.643-61.786-86.786-116.79 0 0-15.714-32.857 31.786-21.429 0 0 12.143 21.071 27.857 25.714l7.1429 11.071c7.5923 2.8185 14.677 7.1588 25 1.7857 5.815-0.86392 11.1-2.6106 19.643 1.0714 3.976-11.619 10.914-20.277 22.5-24.286l17.857-29.643 9.6429-46.429 23.571-38.571 59.643-14.286 91.786-3.3929z" fill="#1a1a1a" stroke="#000" stroke-width="3"/>
  <path d="m554.07 271.44-20.456-8.3338s-13.132 19.698-46.467 27.022c0 0-17.425 14.395-20.203 14.395s-10.859-10.354-1.7678-15.405 20.203-11.869 21.466-13.637 0.75761-10.354-3.0305-9.849-25.759 2.2728-29.294 7.0711-2.5254 14.142-2.0203 15.405-6.3134 8.8388-7.8287 6.566-2.7779-5.3033-2.7779-5.3033c0.70703-3.0682-0.94318-3.4846-4.0406-2.2728 0 0-1.2627 3.0304-3.0305 3.283s-6.8185 1.5152-6.566-0.50507 1.5152-11.617 3.0305-13.132 9.0914-10.607 9.5964-11.617 3.5355-3.0305 3.7881-4.7982-0.75761-6.3134 1.0102-7.3236 3.7881-2.5254 5.5558-4.5457 21.718-15.152 24.496-15.405 56.063-6.8185 70.206 0.50508 22.223 13.385 22.223 13.385l-13.89 24.496z" fill="#f1c191" stroke="#000" stroke-width="3"/>
  <path d="m472.14 286.25s6.6071 4.4643 7.1429 9.1071l0.17857 0.17857c2.1428-7.8571-7.3214-9.2857-7.3214-9.2857z" fill="#999"/>
  <path d="m476.07 284.46s5.3571 3.0357 6.6071 7.6786c1.0714-8.5714-6.6071-7.6786-6.6071-7.6786z" fill="#999"/>
  <path d="m535.41 258.09c-2.417 0.0837-4.7321 0.56696-5.9375 1.9062-3.2143 3.5714-33.741 24.299-38.562 24.656s-19.835 7.317-20.906 13.031c-0.39843 2.125-0.71871 4.1376-1 5.9688 5.4375-3.0609 18.156-13.531 18.156-13.531 33.335-7.3236 46.469-27.031 46.469-27.031l1.5625 0.65625c0.92203-2.5211 5.239-3.4215 8.5625-4.8125 0 0-4.3154-0.98326-8.3438-0.84375z" fill="url(#f)"/>
  <path d="m468.81 293.66c-2.2691 0.092-5.109 2.4313-7.3438 4.6562 1.1507 3.4011 4.0232 6.2188 5.4688 6.2188 1.1242 0 4.6724-2.3805 8.4688-5.1875-1.0262-2.1734-2.959-4.896-5.75-5.5938-0.26786-0.067-0.5534-0.10552-0.84375-0.0937z" fill="#e3dedb"/>
  <path d="m496.19 265.31c-2.6144 0.0589-6.3551 1.1659-9.7812 2.4062 0.46997 1.0685 0.76205 2.4045 0.84375 3.6875l13.656-5.3438-3.5938-0.71875c-0.34598-0.0446-0.7189-0.0404-1.125-0.0312z" fill="#808080"/>
  <path d="m452.125,271.96875c-.6189-.017-1.24553.0759-1.78125.34375-2.27867,1.13933-15.31155,13.62757-20.375,18.6875 .44526.00051.91003-.0346 1.40625-.0937 3.34329-2.2314 7.94616-5.44904 8.96875-6.8125 1.60715-2.14286 7.34821-7.84375 9.3125-7.84375 .95003,0 2.01779.19056 2.875.40625 .39412-1.45249.95713-2.8503 1.78125-3.96875 .0468-.0635.10308-.12505.15625-.1875-.76171-.28062-1.56169-.50977-2.34375-.53125z" fill="#ce9964"/>
  <path d="m554.07 271.44-20.456-8.3338s-13.132 19.698-46.467 27.022c0 0-17.425 14.395-20.203 14.395s-10.859-10.354-1.7678-15.405 20.203-11.869 21.466-13.637 0.75761-10.354-3.0305-9.849-25.759 2.2728-29.294 7.0711-2.5254 14.142-2.0203 15.405-6.3134 8.8388-7.8287 6.566-2.7779-5.3033-2.7779-5.3033c0.70703-3.0682-0.94318-3.4846-4.0406-2.2728 0 0-1.2627 3.0304-3.0305 3.283s-6.8185 1.5152-6.566-0.50507 1.5152-11.617 3.0305-13.132 9.0914-10.607 9.5964-11.617 3.5355-3.0305 3.7881-4.7982-0.75761-6.3134 1.0102-7.3236 3.7881-2.5254 5.5558-4.5457 21.718-15.152 24.496-15.405 56.063-6.8185 70.206 0.50508 22.223 13.385 22.223 13.385l-13.89 24.496z" fill="none" stroke="#000" stroke-width="3"/>
  <path d="m560.13 232.3s14.5 8.5188 19.698 14.395c5.5664 6.2924 18.186 10.096 18.435 9.5964 4.3616 4.0828 8.2713 4.5511 13.89 18.688 13.928-4.3953 15.536 4.3498 19.951 10.102 10.83-2.4835 13.681 1.1704 15.91 5.3033 7.6603-4.208 15.321-9.1566 22.981-5.5558 0 0 12.627-12.374 16.92-6.0609s-13.637 60.862-13.637 60.862l-38.386 13.637-17.93-1.5152c-3.8018-14.129-18.604-17.088-40.406-41.164l-33.588-38.133c9.7785-3.0492 29.841-23.144 16.162-40.154z" fill="#1a1a1a" stroke="#000" stroke-width="3"/>
  <path d="m665 296.79s26.786-25.714 25.714-27.5 10-17.857 10-17.857l-12.143 8.9286c-5.979-14.157-3.2985-25.84 10.714-34.286-10.546-15.046 11.217-22.336 22.5-32.143 8.2502-9.2369 15.915-23.153 23.214-40 29.786-36.699 56.234-77.627 127.5-61.786l8.9286 6.4286c6.8561 0.27632 12.833-7.3639 21.429 8.5714 7.9506 4.3842 14.043 12.22 15.357 28.929 1.0866 18.785-5.4837 68.829-16.786 125.71-8.1559 31.168-19.478 58.491-15 105l-5.7143-2.1428-5.7143 8.2143-1.7857-26.071c-7.3622 3.1787-14.901 5.9456-27.857-3.9286l-7.1428 1.7857c0.81333 16.806 6.8132 28.425 20 32.857-7.7219-5.9797-15.99 4.972-22.857-27.5l-18.571 8.9286c-2.9005 3.4342-2.2846 11.557-2.5 18.571l-4.6429-18.929c-11.905 4.4093-23.81 0.15876-35.714-6.7857l-11.071 7.5 5.3572-11.786c-60.378 17.505-70.93 54.387-81.071 91.429l-9.6429 3.5714 5.3571-7.8571-10.714-11.429 2.1429 9.2857-13.214-13.929-6.4286-11.786 6.4286 4.6429c3.3275-25.903-0.50407-20.306-1.4286-27.5-0.98154-4.0185-6.4853-3.5147-10-5l14.643-2.1429 3.9286-11.071c1.7343-7.4692-0.60503-12.494-3.5714-17.143-5.246 3.5596-7.835 11.105-9.2857 20.357l-5-16.429c-0.42285 4.3746-2.575 5.8671 0.71429 16.429l-8.2143-12.857-16.071-3.5714 21.071-3.9286c9.3024-6.2306 20.652-10.072 24.643-22.5l-0.71428-18.214 0.72334 0.45366c3.0072-4.8447 5.4104-10.897 7.0711-18.435-1.0726-1.9575-8.3786 3.0976-14.58 6.9102z" fill="#520" stroke="#000" stroke-width="3"/>
  <path d="m744.99 285.33 2.7779 27.779s9.0914 5.3033 13.385 4.5457 19.698-15.91 21.213-17.678 6.3134-12.374 6.3134-12.374l-43.689-2.2728z" fill="#d4a77a" stroke="#000" stroke-width="2"/>
  <path d="m725.89 223.04c-2.1901 16.405-2.3434 33.101 0.17857 50.179 3.5052 6.1134 11.557 10.711 18.929 15.536 27.157 4.5446 51.175 4.6036 68.929-4.2857 12.179-8.868 23.177-19.9 33.337-32.469-3.6104 4.2475-6.1384-31.986-2.7779-35.608 1.765-1.9025 3.3185-28.032 2.0203-28.032l9.0914-18.94c1.7705-11.408-2.7441-19.673-7.5762-27.779 0 0-8.3338 1.0102-8.8388-2.2728s-1.6367-10.571-2.7779-11.112c-9.5734-4.5331-57.468 18.702-51.013 22.223-13.28 4.7719-24.851 13.247-34.093 26.769-12.715 9.0369-22.743 22.015-25.408 45.792z" fill="#f1c191" stroke="#000" stroke-width="2"/>
  <path d="m603.57 483.03 62.664-48.678c-30.052 9.0914-62.664 48.678-62.664 48.678z"/>
  <path d="m619.52 486.21s19.571-32.301 50.634-38.614c-9.3439 4.0406-50.634 38.614-50.634 38.614z"/>
  <path d="m474.53 309.06c-0.50508-0.50507 19.68 52.026 20.438 61.875 0.47444 6.1678-6.6261 21.745-12.853 33.268l2.0446 2.3036 24.607-22.424c-5.6528-22.827-34.237-75.022-34.237-75.022z" fill="url(#e)"/>
  <path d="m543.57 233.57 20.714 15.357s2.8571-36.071-20.714-15.357z"/>
  <path d="m618.93 589.64s64.286 25.714 198.57-91.071l-0.35714 0.35714c-86.159 73.802-190.68 101.6-198.21 90.714z"/>
  <path d="m709.64 418.93c18.416-51.717 110.03-64.035 118.21 64.286 13.669-109.38-106.3-138.13-118.21-64.286z"/>
  <path d="m616.79 492.14c-5.1235 44.372 9.4265 67.496 27.857 86.429l0.33954-0.29736c-16.5-24.272-27.811-51.787-28.197-86.131z"/>
  <path d="m605.36 491.79c-10.076 19.385-10.041 39.782-1.0714 61.071-2.3916-20.357-4.4553-40.714 1.0714-61.071z"/>
  <path d="m674.64 465.71c23.778 25.206 50.759 26.717 79.286 16.786l0.15031-0.19042c-32.325 13.385-79.436-16.595-79.436-16.595z"/>
  <path d="m692.14 445.71c47.02 33.531 85.109 20.784 121.79 0.71428l0.50692-0.23195c-33.77 9.8751-59.297 31.575-122.29-0.48233z"/>
  <path d="m838.43 531.3-112.13 144.96h1.0102c94.449-111.12 111.12-144.96 111.12-144.96z"/>
  <path d="m625.03 286.09s-1.0102 32.577-13.385 38.638l0.25253-0.50508c24.689 0.0335 22.517-16.787 13.132-38.133z"/>
  <path d="m594.47 309.83c0.25254-2.0203 0.75762-19.445 16.162-19.445-1.7678 14.395-16.162 19.445-16.162 19.445z"/>
  <path d="m571.75 291.9s18.94-5.5558 18.94-28.537c11.617 32.072-18.94 28.537-18.94 28.537z"/>
  <path d="m807.11 197.7 12.879 5.0508c10.89-0.3146 18.079 6.773 25.001 14.395l2.2728-2.0203c-2.5939-7.2217-10.182-13.644-29.547-18.183l3.5355-2.2728-9.3439 1.0102 3.283-2.2728s-5.0508-3.283-8.0812 4.2932z" fill="#333"/>
  <path d="m762.92 162.09c6.3976 4.6072 12.795 12.613 19.193 21.213l1.2627-9.0914-2.0203 3.283-1.0102-5.5558-1.2627 3.0304c3.1319 0-11.183-15.91-14.395-16.162-1.7802-0.13997-1.2627 3.283-1.7678 3.283z" fill="#333"/>
  <path d="m840.95 139.87s29.042-37.376 50.255-41.416c-21.744 16.357-41.734 34.896-50.255 41.416z" fill="#803300"/>
  <path d="m867.07 145.67s-20.475 76.011-17.424 94.634 13.078 38.514-11.547 78c0 0 19.848-2.7314 23.871-79.198 3.3114-62.937-4.2388-39.202 5.0998-93.436z" fill="#803300"/>
  <path d="m880.35 162.09s12.786 7.9406 1.2627 47.225c-16.668 56.821-15.405 88.641-22.981 96.217 0.481-3.2468 17.555-91.539 21.718-143.44z" fill="#803300"/>
  <path d="m886.16 138.08s20.447 35.12 8.8306 63.404-28.789 73.236-22.476 91.848c-3.9631-17.988 15.243-62.11 28.138-89.834s-14.493-65.418-14.493-65.418z" fill="#803300"/>
  <path d="m743.27 173.45c2.0203-1.5152 14.849-15.403 35.052-33.586s61.619-23.739 61.948-24.621-41.364 1.9396-62.718 18.755-32.166 38.072-34.282 39.451z" fill="#803300"/>
  <path d="m760.21 141.66c2.1937-1.2511 16.656-13.428 38.972-28.946s64.101-15.859 64.537-16.693-41.282-3.2405-64.569 10.777-36.668 33.757-38.939 34.862z" fill="#803300"/>
  <path d="m692.49 351.99s-6.5973-27.265-1.5466-58.58 19.698-29.8 23.234-54.043-6.0609-23.234-2.0498-22.812 13.643-0.16692 9.0479 23.898-19.162 21.91-25.58 52.973-3.105 58.564-3.105 58.564z" fill="#803300"/>
  <path d="m675.6 392.22s27.47 2.2086 33.531-25.571-3.5355-38.386 6.7621-52.592c-16.627 8.6114-5.8385 18.003-8.557 46.306s-31.736 31.857-31.736 31.857z" fill="#803300"/>
  <path d="m739.88 324.8s4.6042 19.114 31.373 9.5174 21.718-31.82 43.122-26.073c-23.922-13.383-16.854 8.2829-42.63 20.294s-31.865-3.7385-31.865-3.7385z" fill="#803300"/>
  <path d="m792.83 339.31c1.9061 3.7631 6.4482 5.9278 10.274 7.0452 4.9228 0.1669 6.7636-8.3378 9.7726-11.631 7.6093-5.6834 15.692-8.0745 17.276-18.666 1.3188-10.4 0.1692-21.013 2.0942-31.352 0.73346-4.6553 3.3251-8.6238 6.0306-12.353 0.90155-2.1274-2.863 0.91676-3.5066 1.4556-4.9506 4.7604-5.753 11.985-6.8331 18.421-1.2203 7.8668-1.5339 15.935-3.8107 23.599-3.0902 5.4137-24.996 29.683-31.297 23.481z" fill="#803300"/>
  <path d="m673.87 375.99s27.512-1.6066 29.678-29.957-8.8031-37.53-0.56624-53.022c-15.278 10.825-3.2961 18.637-2.0798 47.044s-27.032 35.935-27.032 35.935z" fill="#803300"/>
  <path d="m770.98 180.49c0 0.71502-1.0793 1.2946-2.4107 1.2946s-2.4107-0.57963-2.4107-1.2946 1.0793-1.2946 2.4107-1.2946 2.4107 0.57963 2.4107 1.2946z" fill="#a40"/>
  <path d="m735 223.75s5.5357-11.071 23.036-7.5l0.17857-0.53572c-22.143-9.2857-23.214 8.0357-23.214 8.0357z" fill="#d8aa7d"/>
  <path d="m798.05 267.23s7.565-9.7975-3.2575-24.006l0.40486-0.39366c17.987 15.906 2.8527 24.4 2.8527 24.4z" fill="#d8ab7e"/>
  <path d="m776.43 239.46s11.607 3.2143 12.143-2.3214-8.2143-9.8214-8.0357-11.786 14.464-24.821 18.214-25.179 17.143 0 21.25 4.2857c0 0-9.6429-1.9643-13.75-0.35714-8.1055 3.3999-14.548 11.291-18.036 19.286-0.17857 2.3214 4.4643 9.2857 4.4643 10.714s-1.25 16.071-16.25 5.3571z" fill="url(#d)"/>
  <path d="m818.21 208.21-0.625-3.125 2.3214 3.75 2.0536-1.6964c-0.11534 0.92262-0.64184 1.8452 0 2.7678l2.5893-0.71428c-0.57844 0.79823-1.2357 1.5866-0.89285 2.5l3.5714-1.1607c-0.50354 1.1308-1.3026 2.2861-0.44643 3.3036l3.2143-1.25c-0.90804 1.131-1.6605 2.2619-1.1607 3.3929l2.9464-0.71428c-0.59049 1.0704-2.0886 1.8109-1.5179 3.3036l2.2768 2.9464c-0.8959-0.49753-1.9463-0.69248-2.7232-0.35714 0 0 2.1429 4.1964 2.9464 4.5536s-18.304-5.2678-28.661-15.268c5.4703-3.3891 9.6483-2.3268 14.107-2.2322z" fill="#333"/>
  <path d="m808.04 210.45s11.875 11.786 19.196 10.982c-0.44643-15.804-19.196-10.982-19.196-10.982z" fill="#fff"/>
  <path d="m816.94 209.94c-1.1818 1.6022-2.3004 3.8149-1.9375 6.2188 0.0117 0.0777 0.0486 0.14357 0.0625 0.21875 2.2016 1.5996 4.6986 3.1308 7.0938 4.0938 1.2731-0.4062 3.0365-1.1679 4.5938-2.5312-1.3999-5.4901-5.6821-7.4528-9.8125-8z" fill="#520"/>
  <path d="m756.04 176.11-0.0631-3.4724 1.7678 1.7678 0.37881-2.7779c0.88036 1.1926 1.7585 2.394 2.9673 2.2728l0.25254-2.336c0.8315 2.2017 1.4766 2.3533 2.1466 2.7779l1.2627-2.5254c0.0973 1.0849 0.10136 2.207 1.0102 2.9673l1.3258-1.5152c0.0573 1.0925 0.18678 2.156 1.894 2.5885l1.2627-1.6415c0.22909 0.98911 0.30702 1.9782 1.0102 2.9673l1.1996-1.7678c-0.0948 1.0733 0.22635 2.1466 0.63135 3.2199l1.389-1.7046c0.19527 1.2779 0.32868 2.6176 1.0102 3.4093l1.1364-1.2627c-0.32027 1.3871-0.22605 2.4634 0.12627 3.3461l2.0834-1.7678c-0.96641 1.6204-1.8463 3.2409-1.3258 4.8614l2.0203-1.0733s-3.5355 4.9876-2.0203 7.513c-6.0523-1.215-14.575-10.442-21.466-15.847v4e-5z" fill="#333"/>
  <path d="m759.11 176.79s14.107 12.679 16.429 12.946l0.26785 0.0893c2.5893-15.893-16.696-13.036-16.696-13.036z" fill="#e6e6e6"/>
  <path d="m766.25 176.91c-0.82095 1.2759-1.6614 2.8706-1.9062 4.4375 2.3792 2.0426 4.9816 4.2236 7.25 5.9375 1.5112-0.50105 3.2361-1.3192 4.25-2.5938-2e-3 -0.0102 2e-3 -0.0211 0-0.0312-1.0311-5.24-5.5275-7.1131-9.5938-7.75z" fill="#502d16"/>
  <path d="m740.18 225.36c7.4814 5.2549 15.36 9.5178 21.964 16.964 11.914 4.6503 22.324 13.06 33.393 19.821-14.906 4.0452-32.46 9.3234-44.643-0.17857-12.242-8.4865-10.774-22.542-10.714-36.607z" fill="#d40000" stroke="#000" stroke-width="2"/>
  <path d="m744.82 231.25c-1.8336 29.247 25.82 33.335 42.857 28.75l0.17857 0.35714c-6.336-3.8882-16.21-8.5625-26.786-13.393-4.8682-6.0608-10.434-11.074-16.25-15.714z" fill="#de8787"/>
  <path d="m746.6875,232.84375c-.0516,1.18622-.78616,4.10423-1.5,6.65625 .23131,1.46235.53029,2.86122.9375,4.15625 3.39504,1.16856 2.60633,3.75514 2.09375,4.84375 .12921.22535.27088.43758.40625.65625 3.01581.66717 2.7899,2.22914 2.34375,3.15625 .219.24607.42817.48375.65625.71875 6.6499.2191 6.5,4.75 6.5,4.75 1.875-3.125 5.34375,2.125 5.34375,2.125 2.26406-2.13087 3.91725-.11271 4.59375,1.0625 .004.007-.004.0247 0,.0312 .17563.0294.35515.0354.53125.0625 1.08963-2.77599 3.84964-.584 5,.5 .23757.009.48143-.005.71875,0 .65136-2.11974 2.72381-1.21253 4.3125-.0937 2.86782-.19202 5.65591-.61579 8.21875-1.25 .0527-.12733.10624-.26915.125-.40625-1.21077-.72131-2.5169-1.41956-3.9375-2.1875-.77136.37115-1.34375.84375-1.34375.84375 .17857-2.58928-3.75-.625-3.75-.625 .53571-4.64285-6.5-2.125-6.5-2.125 1.16072-4.64286-6.09375-2.5-6.09375-2.5 1.07143-5.35715-6.25-3.9375-6.25-3.9375-1.16071-6.96428-6.15625-4.8125-6.15625-4.8125s2.69196-4.12054-1.59375-4.65625c0,0-.0442-2.09407-1.09375-4.03125-1.10003-.96874-2.21706-1.915-3.34375-2.84375-.0752-.0239-.141-.0725-.21875-.0937z" fill="url(#c)"/>
  <path transform="matrix(1.354 0 0 1.234 -273.99 -40.752)" d="m774.26 180.51c0 1.7382-1.3691 3.1473-3.058 3.1473s-3.058-1.4091-3.058-3.1473 1.3691-3.1473 3.058-3.1473 3.058 1.4091 3.058 3.1473z" clip-path="url(#l)"/>
  <path transform="translate(-.33482,-.29018)" d="m770 179.15c0 0.71501-0.91941 1.2946-2.0536 1.2946s-2.0536-0.57963-2.0536-1.2946 0.91941-1.2946 2.0536-1.2946 2.0536 0.57963 2.0536 1.2946z" fill="url(#b)"/>
  <path transform="matrix(1.4634 0 0 1.3337 -307.8 -25.197)" d="m774.26 180.51c0 1.7382-1.3691 3.1473-3.058 3.1473s-3.058-1.4091-3.058-3.1473 1.3691-3.1473 3.058-3.1473 3.058 1.4091 3.058 3.1473z" clip-path="url(#k)"/>
  <path transform="translate(51.094 33.638)" d="m770 179.15c0 0.71501-0.91941 1.2946-2.0536 1.2946s-2.0536-0.57963-2.0536-1.2946 0.91941-1.2946 2.0536-1.2946 2.0536 0.57963 2.0536 1.2946z" fill="url(#b)"/>
 </g>
</svg>
